<svg xmlns="http://www.w3.org/2000/svg" width="923.35" height="239.1" viewBox="0 0 923.35 239.1"><defs><style>.cls-1{fill:#030303;}.cls-2{fill:#5cc81c;}.cls-3{fill:#009bff;}.cls-4{fill:#e2e615;}.cls-5{fill:#0073e0;}.cls-6{fill:#a3e600;}.cls-7{fill:#65c8a1;}.cls-8{fill:#78e6f5;}</style></defs><title>Asset 1</title><g id="Layer_2" data-name="Layer 2"><g id="Layer_1-2" data-name="Layer 1"><path class="cls-1" d="M324.63,23.78H345v58.3a9.4,9.4,0,0,0,1.93-.84C371.24,59.18,404.26,67,416,98.31a86.7,86.7,0,0,1-.89,64.61c-11.72,28.89-44.58,36.37-68.4,16.28a6.22,6.22,0,0,0-1.47-.49v11.85H324.63Zm20.44,133.9c1.12,1.37,2,2.61,3,3.68,8.05,8.29,17.19,13.44,29.33,10.56,11.72-2.77,17.08-11.34,19.91-21.92a78.41,78.41,0,0,0-.77-43.25c-2.63-8.86-7.77-16.06-17.26-19.08-12.7-4-26.26,1.35-34.22,13.75Z"/><path class="cls-1" d="M255.08,68.62c25.1-.9,40.73,14.89,45.88,34.2,5.81,21.77,6,43.47-4.44,64-9.23,18.19-25.32,24.92-43.7,23.45-27.28-2.19-41.8-16.73-46-44.1-2.24-14.44-1.95-28.77,2.07-42.92C214.61,83,230.51,67.76,255.08,68.62Zm27.83,60.8c.27-10.3-.76-20.18-5.49-29.24s-12.28-13.59-22.65-13.42c-10.06.17-18,4.24-21.83,13.57a81.9,81.9,0,0,0-5.44,21.47c-1.43,12.3-.54,24.59,4.86,36.06,4.44,9.43,12,14.29,22.5,14.36,10.71.08,18.4-4.77,23-14.41C282.19,148.75,283.22,139.08,282.91,129.42Z"/><path class="cls-1" d="M483.51,129.3c.34-12.94,1.95-25.51,8.24-37.05,8.46-15.51,21.63-22.92,39.24-23.71,33.38-1.49,47.85,21.84,51,45.91,2,15.51,1.51,30.8-4,45.67-7.62,20.72-25.89,31.66-47.84,30.34-27.86-1.67-41.89-21.91-45.18-45.29C484.22,139.92,484,134.59,483.51,129.3ZM563,130.67c0-16.06-3.19-19.35-6.22-28.14-3.72-10.77-12.25-16-23.91-15.77-11.27.21-19.18,5.73-22.74,16a89.83,89.83,0,0,0-4.41,23.2c-.75,11.09.2,22.19,5.3,32.44,4.58,9.2,12.12,13.76,22.36,13.8s17.85-4.52,22.27-13.71C559.78,149.82,563,148.65,563,130.67Z"/><path class="cls-1" d="M63.56,190.62h-21V70.91H61.68V86.33c3.56-2.72,6.43-5,9.42-7.17,10.59-7.59,22-11.93,35.39-9.6s22.83,11.65,24.36,25.11a148.66,148.66,0,0,1,1,15.92c.1,26.48,0,53,0,79.83H110.36v-5.07q0-37,0-74a82.89,82.89,0,0,0-.53-9.45C108.39,90,99.2,84.1,87,87.17,77.81,89.46,70.66,95,63.56,101.91Z"/><path class="cls-1" d="M686.46,189.81H662c-8.4-15.4-16.88-30.92-25.77-47.2-8.78,16-17.32,31.51-25.85,47H587.32l37.59-63.45L590.42,68.84h24.2c7.19,13,14.41,26,22.16,39.92,7.64-13.7,14.94-26.76,22.29-39.94h22.86l-33.39,57.39Z"/><path class="cls-1" d="M200.17,88.37h-26V190.55H152.93V185.7c0-44.15-.08-88.3,0-132.45,0-21.76,13.11-31.81,34.65-30,4.3.36,8.58,1,13.14,1.53V42.14c-3.72-.27-7.46-.51-11.18-.8-10.31-.81-15.35,3.69-15.52,14-.08,4.82,0,9.64,0,15.05h26.14Z"/><path class="cls-1" d="M463.16,190.65H442.62V23.94h20.54Z"/><path class="cls-1" d="M0,23.78H20V190.57H0Z"/><path class="cls-2" d="M835.07,75.12a42.82,42.82,0,0,1,4.31-4.43q16.47-12.52,33.06-24.89c3.68-2.76,7.75-3.5,11.55-.71C896.05,53.94,908,63,919.89,72A20.39,20.39,0,0,1,922.3,75a77,77,0,0,1-5.66,5.25c-10.19,7.74-20.46,15.38-30.7,23-5,3.78-9.06,3.82-14,.1Q855.73,91.23,839.6,79.08C838.19,78,836.93,76.75,835.07,75.12Z"/><path class="cls-3" d="M923.35,163.6a35.78,35.78,0,0,0-4.86,2.59c-11,8.11-21.82,16.33-32.74,24.48-5.12,3.81-8.57,3.93-13.54.26q-16.85-12.42-33.53-25.05c-1.24-.93-2.15-2.3-4.34-4.71,2-1.27,3.56-2.16,5-3.25,10.78-8,21.52-16.16,32.32-24.18,5.71-4.23,8.58-4.23,14.34,0,10.94,8.11,21.81,16.31,32.71,24.47,1.2.9,2.42,1.76,3.63,2.63Z"/><path class="cls-4" d="M863.76,30.37c-1.31,1.76-2,3.37-3.3,4.33-11.21,8.56-22.51,17-33.79,25.49-3.33,2.5-7.11,3.55-10.62,1-12.43-9.15-24.67-18.55-37-27.88-.49-.37-.75-1.05-2.83-3.51a35.46,35.46,0,0,0,5.33-2.69c10.41-7.7,20.74-15.5,31.09-23.29,6.69-5,9-5.08,15.86.08C840,12.4,851.33,21,863.76,30.37Z"/><path class="cls-5" d="M776.69,206.68c13.79-10.31,26.26-20,39.23-29,2.22-1.54,7.41-1.4,9.69.18,12.28,8.54,24.08,17.77,36,26.8a15.78,15.78,0,0,1,2.17,2.83c-1.1,1.34-2,2.94-3.29,3.95q-16.71,12.65-33.57,25.1c-4.62,3.41-8.33,3.37-12.77,0Q797.39,224,780.72,211.35C779.31,210.27,778.34,208.63,776.69,206.68Z"/><path class="cls-6" d="M718.81,75.81c1.44-1.89,2.28-3.66,3.66-4.71q16.47-12.54,33.11-24.81c5-3.74,8.55-3.76,13.54-.07q16.82,12.45,33.47,25.1c1.27,1,1.94,2.7,3.14,4.45-5.2,4-9.78,7.49-14.39,11-7.57,5.69-15.19,11.32-22.73,17-3.58,2.72-7.62,3.34-11.12.81C744.84,95.46,732.44,86,718.81,75.81Z"/><path class="cls-7" d="M777.31,118C790.7,107.9,803.14,98.21,816,89.11c2-1.44,6.78-1.49,8.79-.08,12.52,8.76,24.63,18.1,36.84,27.29a12.16,12.16,0,0,1,1.75,2.45,22.52,22.52,0,0,1-2.85,3.13c-11.27,8.5-22.63,16.86-33.86,25.42-3.84,2.93-7.67,3.32-11.46.52-11.49-8.49-22.87-17.13-34.24-25.78C779.73,121.12,778.84,119.73,777.31,118Z"/><path class="cls-8" d="M805.86,161.86c-9,6.85-16.88,12.83-24.76,18.76-4.61,3.47-9.05,7.28-14,10.09-2.31,1.29-6.66,1.85-8.55.53-12.55-8.79-24.68-18.18-36.94-27.39a13.88,13.88,0,0,1-1.69-2c6.73-5.19,13.35-10.34,20-15.42,5.24-4,10.55-7.91,15.83-11.87,4.93-3.7,8.21-3.84,13-.28,10.83,8.08,21.62,16.23,32.44,24.34C802.48,159.61,803.88,160.5,805.86,161.86Z"/></g></g></svg>