<svg xmlns="http://www.w3.org/2000/svg" viewBox="0 0 457.43 127.79" width="457.43" height="127.79"><defs><style>.cls-1{fill:#010101;}.cls-2{fill:#a0cf67;}.cls-3{fill:#70cde3;}.cls-4{fill:#f2eb46;}.cls-5{fill:#60c5ba;}.cls-6{fill:#0081c6;}.cls-7{fill:#7ac143;}.cls-8{fill:#009ddc;}.cls-9{fill:#231f20;}</style></defs><title>Asset 1</title><g id="Layer_2" data-name="Layer 2"><g id="Layer_1-2" data-name="Layer 1"><path class="cls-1" d="M63.54,49.69V91.62H53.26V52.49c0-3.73-.67-6.48-2-8.26s-3.45-2.67-6.3-2.67A14.75,14.75,0,0,0,38,43.44a30,30,0,0,0-7.26,5.62V91.62H20.65V33.82H30v7.75a39.67,39.67,0,0,1,9.31-6.51,20.48,20.48,0,0,1,8.74-2q7.33,0,11.39,4.32t4.06,12.29"/><path class="cls-1" d="M97,11.87v8.5c-2.41-.14-3.4-.26-4.26-.35a21.37,21.37,0,0,0-2.24-.13q-3.53,0-5,1.64T84,27v6.81H96.57v8.65H84V91.62H73.77v-66q0-7.08,3.75-10.82T88.39,11a30.23,30.23,0,0,1,3.31.2c1.24.14,2.57.36,5.29.64"/><path class="cls-1" d="M122.8,32.81q11.29,0,17.54,7.71t6.25,21.57q0,13.93-6.25,21.66T122.8,91.47q-11.29,0-17.6-7.72T98.9,62.09q0-13.87,6.3-21.57t17.6-7.71m0,8.86a11.21,11.21,0,0,0-10,5.17q-3.4,5.16-3.4,15.24t3.4,15.35a12.15,12.15,0,0,0,20,0q3.43-5.22,3.43-15.25t-3.4-15.32a11.18,11.18,0,0,0-10-5.2"/><rect class="cls-1" x="212.69" y="11.21" width="10.14" height="80.42"/><rect class="cls-1" x="0.09" y="11.21" width="10.14" height="80.42"/><path class="cls-1" d="M166.12,91.62V85.33a18.17,18.17,0,0,0,5.43,4.19A19,19,0,0,0,180,91.37q10.65,0,16.62-7.82t6-21.78q0-13.3-6.14-21.08t-16.54-7.78a16.79,16.79,0,0,0-7.72,1.8A17.48,17.48,0,0,0,166.12,40V11.21H156V91.62Zm22.5-14a11.54,11.54,0,0,1-10.16,5.27A12.92,12.92,0,0,1,172,81.14a20.63,20.63,0,0,1-5.85-5.28V48.27a21.28,21.28,0,0,1,5.75-5.12,12.36,12.36,0,0,1,6.23-1.69,11.83,11.83,0,0,1,10.5,5.38q3.59,5.38,3.58,15.72,0,9.76-3.56,15"/><path class="cls-1" d="M256.43,32.81c7.52,0,13.37,2.57,17.53,7.71s6.26,12.32,6.26,21.57S278.13,78.6,274,83.75s-10,7.72-17.53,7.72S243,88.9,238.84,83.75s-6.3-12.37-6.3-21.66,2.1-16.44,6.3-21.57,10.05-7.71,17.59-7.71m0,8.86a11.2,11.2,0,0,0-10,5.17Q243,52,243,62.09t3.41,15.35a12.15,12.15,0,0,0,20,0q3.43-5.22,3.43-15.25t-3.4-15.32a11.17,11.17,0,0,0-10-5.2"/><polygon class="cls-1" points="283.59 32.85 295.29 32.85 306.01 52.22 316.78 32.85 327.83 32.85 311.66 60.6 329.95 91.23 318.14 91.23 305.73 68.48 293.27 91.23 282.11 91.23 300.29 60.6 283.59 32.85"/><path class="cls-1" d="M12.86,115.29c-.65-3-3.17-3.58-4.83-3.58-3.12,0-5.64,2.3-5.64,6.84,0,4.05,1.44,7.18,5.71,7.18,1.51,0,4.13-.72,4.92-4.73h2.26c-1,6.51-6.24,6.79-7.54,6.79-3.91,0-7.75-2.54-7.75-9.17,0-5.3,3-9,8-9,4.44,0,6.75,2.76,7.08,5.64Z"/><path class="cls-1" d="M26,127.79c-6.43,0-8.4-5.35-8.4-9.07s2-9.07,8.4-9.07,8.4,5.35,8.4,9.07-2,9.07-8.4,9.07m0-16.08c-3.75,0-6,3-6,7s2.25,7,6,7,6-3,6-7-2.26-7-6-7"/><polygon class="cls-1" points="48.91 110.11 51.17 110.11 51.17 127.34 48.55 127.34 39.79 113.42 39.74 113.42 39.74 127.34 37.49 127.34 37.49 110.11 40.25 110.11 48.86 124.03 48.91 124.03 48.91 110.11"/><polygon class="cls-1" points="53.69 110.11 67.68 110.11 67.68 112.17 61.85 112.17 61.85 127.34 59.52 127.34 59.52 112.17 53.69 112.17 53.69 110.11"/><path class="cls-1" d="M72.81,127.34H70.49V110.11h8c2.83,0,5.66,1,5.66,4.63a4.25,4.25,0,0,1-2.4,4.13c1,.41,2,.84,2.06,3.24l.14,3.12c0,1,.14,1.32.86,1.73v.38H81.94a21.14,21.14,0,0,1-.41-4.32c0-1.42-.29-3.07-3.07-3.07H72.81Zm0-9.38h5.4c1.7,0,3.51-.43,3.51-3s-1.95-2.88-3.1-2.88H72.81Z"/><path class="cls-1" d="M95.4,127.79c-6.43,0-8.4-5.35-8.4-9.07s2-9.07,8.4-9.07,8.4,5.35,8.4,9.07-2,9.07-8.4,9.07m0-16.08c-3.75,0-6,3-6,7s2.25,7,6,7,6-3,6-7-2.26-7-6-7"/><polygon class="cls-1" points="109.25 125.28 117.98 125.28 117.98 127.34 106.92 127.34 106.92 110.11 109.25 110.11 109.25 125.28"/><polygon class="cls-1" points="134 127.34 131.67 127.34 131.67 120.4 125.17 110.11 127.88 110.11 132.82 118.39 137.77 110.11 140.5 110.11 134 120.4 134 127.34"/><path class="cls-1" d="M150.53,127.79c-6.43,0-8.4-5.35-8.4-9.07s2-9.07,8.4-9.07,8.4,5.35,8.4,9.07-2,9.07-8.4,9.07m0-16.08c-3.75,0-6,3-6,7s2.25,7,6,7,6-3,6-7-2.26-7-6-7"/><path class="cls-1" d="M175.69,110.11v11.19c0,3.53-2.21,6.5-6.94,6.5s-6.62-3-6.62-6.19v-11.5h2.33V121c0,3.74,2.28,4.78,4.37,4.78s4.54-1,4.54-4.73v-10.9Z"/><path class="cls-1" d="M182.36,127.34H180V110.11h8c2.83,0,5.66,1,5.66,4.63a4.25,4.25,0,0,1-2.4,4.13c1,.41,2,.84,2.06,3.24l.14,3.12c0,1,.14,1.32.86,1.73v.38h-2.86a21.15,21.15,0,0,1-.41-4.32c0-1.42-.29-3.07-3.07-3.07h-5.64Zm0-9.38h5.4c1.7,0,3.5-.43,3.5-3s-1.94-2.88-3.1-2.88h-5.81Z"/><polygon class="cls-1" points="216.89 110.11 219.14 110.11 219.14 127.34 216.53 127.34 207.76 113.42 207.72 113.42 207.72 127.34 205.46 127.34 205.46 110.11 208.22 110.11 216.84 124.03 216.89 124.03 216.89 110.11"/><polygon class="cls-1" points="236.11 127.34 223.39 127.34 223.39 110.11 235.94 110.11 235.94 112.17 225.72 112.17 225.72 117.45 235.15 117.45 235.15 119.52 225.72 119.52 225.72 125.28 236.11 125.28 236.11 127.34"/><polygon class="cls-1" points="238.03 110.11 252.02 110.11 252.02 112.17 246.19 112.17 246.19 127.34 243.86 127.34 243.86 112.17 238.03 112.17 238.03 110.11"/><polygon class="cls-1" points="260.04 127.34 257.59 127.34 253.1 110.11 255.62 110.11 258.84 124.12 258.89 124.12 262.75 110.11 265.29 110.11 269.16 124.12 269.2 124.12 272.42 110.11 274.99 110.11 270.45 127.34 268 127.34 264.07 113.06 264.02 113.06 260.04 127.34"/><path class="cls-1" d="M285.07,127.79c-6.43,0-8.4-5.35-8.4-9.07s2-9.07,8.4-9.07,8.4,5.35,8.4,9.07-2,9.07-8.4,9.07m0-16.08c-3.75,0-6,3-6,7s2.25,7,6,7,6-3,6-7-2.26-7-6-7"/><path class="cls-1" d="M299.2,127.34h-2.33V110.11h8c2.83,0,5.66,1,5.66,4.63a4.25,4.25,0,0,1-2.4,4.13c1,.41,2,.84,2.06,3.24l.14,3.12c0,1,.14,1.32.86,1.73v.38h-2.86a21.15,21.15,0,0,1-.41-4.32c0-1.42-.29-3.07-3.07-3.07H299.2Zm0-9.38h5.4c1.7,0,3.5-.43,3.5-3s-1.94-2.88-3.1-2.88H299.2Z"/><polygon class="cls-1" points="316.6 127.34 314.28 127.34 314.28 110.11 316.6 110.11 316.6 118.46 324.96 110.11 328.17 110.11 321 117.07 328.36 127.34 325.34 127.34 319.31 118.7 316.6 121.29 316.6 127.34"/><path class="cls-2" d="M363.8,50.21l-17.3-13a1.71,1.71,0,0,1-.79-1.32,1.74,1.74,0,0,1,.79-1.32l17.31-13a4.52,4.52,0,0,1,5,0s17.28,13,17.28,13a1.72,1.72,0,0,1,.8,1.31,1.74,1.74,0,0,1-.8,1.32l-17.28,13a4.53,4.53,0,0,1-5,0"/><path class="cls-3" d="M363.8,92.15l-17.3-13a1.5,1.5,0,0,1,0-2.65l17.31-13a4.51,4.51,0,0,1,5,0l17.28,13a1.72,1.72,0,0,1,.8,1.32,1.76,1.76,0,0,1-.8,1.32l-17.28,13a4.53,4.53,0,0,1-5,0"/><path class="cls-4" d="M391.73,29.33l-17.27-13a1.71,1.71,0,0,1-.8-1.33,1.68,1.68,0,0,1,.8-1.31l17.27-13a4.52,4.52,0,0,1,5,0l17.31,13a1.74,1.74,0,0,1,.79,1.32,1.74,1.74,0,0,1-.79,1.33l-17.31,13a4.52,4.52,0,0,1-5,0"/><path class="cls-5" d="M391.73,71.27l-17.27-13a1.49,1.49,0,0,1,0-2.64l17.27-13a4.5,4.5,0,0,1,5,0l17.31,13a1.5,1.5,0,0,1,0,2.64l-17.31,13a4.52,4.52,0,0,1-5,0"/><path class="cls-6" d="M391.73,113.94l-17.27-13a1.7,1.7,0,0,1-.8-1.33,1.66,1.66,0,0,1,.8-1.31l17.27-13a4.5,4.5,0,0,1,5,0l17.31,13a1.5,1.5,0,0,1,0,2.64l-17.31,13a4.53,4.53,0,0,1-5,0"/><path class="cls-7" d="M419.69,50.21l-17.3-13a1.71,1.71,0,0,1-.79-1.32,1.74,1.74,0,0,1,.79-1.32l17.31-13a4.53,4.53,0,0,1,5,0s17.28,13,17.28,13a1.72,1.72,0,0,1,.8,1.31,1.74,1.74,0,0,1-.8,1.32l-17.28,13a4.54,4.54,0,0,1-5,0"/><path class="cls-8" d="M419.69,92.15l-17.3-13a1.5,1.5,0,0,1,0-2.65l17.31-13a4.52,4.52,0,0,1,5,0l17.28,13a1.73,1.73,0,0,1,.8,1.32,1.76,1.76,0,0,1-.8,1.32l-17.28,13a4.54,4.54,0,0,1-5,0"/><path class="cls-9" d="M457.43,57A7.42,7.42,0,1,1,450,49.55,7.32,7.32,0,0,1,457.43,57m-13.69,0A6.27,6.27,0,1,0,450,50.61,6.21,6.21,0,0,0,443.74,57m4.63,4.29h-1.05V52.68h3.29c1.93,0,2.79.84,2.79,2.38a2.32,2.32,0,0,1-2.16,2.39l2.56,3.81h-1.24l-2.41-3.81h-1.78Zm1.4-4.71c1.3,0,2.57,0,2.57-1.49,0-1.2-1-1.48-2-1.48h-1.94v3Z"/></g></g></svg>